<?xml version="1.0" standalone="no"?>
<!DOCTYPE svg PUBLIC "-//W3C//DTD SVG 20010904//EN"
 "http://www.w3.org/TR/2001/REC-SVG-20010904/DTD/svg10.dtd">
<svg version="1.0" xmlns="http://www.w3.org/2000/svg"
 width="260.000000pt" height="260.000000pt" viewBox="0 0 260.000000 260.000000"
 preserveAspectRatio="xMidYMid meet">
<metadata>
Created by potrace 1.11, written by Peter Selinger 2001-2013
</metadata>
<g transform="translate(0.000000,260.000000) scale(0.100000,-0.100000)"
fill="#000000" stroke="none">
<path d="M1810 2438 c-10 -24 -52 -117 -93 -208 -41 -91 -92 -202 -113 -248
l-37 -83 -76 1 c-146 3 -146 3 -128 -18 10 -10 17 -26 17 -34 0 -9 12 -27 28
-40 31 -26 31 -54 0 -79 -19 -15 -19 -16 11 -48 17 -18 31 -37 31 -42 0 -5 7
-9 16 -9 13 0 15 9 11 53 -2 28 -8 62 -12 75 -6 17 -3 22 9 22 9 0 16 -7 16
-17 0 -9 2 -14 6 -11 5 5 36 -10 168 -78 60 -32 76 -55 83 -118 7 -67 -13
-127 -60 -184 -18 -21 -41 -50 -51 -65 -11 -14 -40 -37 -65 -51 -26 -14 -63
-41 -84 -61 -46 -42 -82 -48 -75 -11 8 41 -27 39 -172 -11 -117 -40 -146 -46
-213 -45 -45 0 -84 5 -92 12 -16 13 -77 16 -96 4 -8 -5 -11 -2 -7 8 8 19 -39
71 -79 87 -18 7 -33 19 -33 26 0 7 -6 18 -14 24 -9 8 -12 29 -9 71 4 72 -5 92
-57 121 -22 13 -40 30 -40 38 0 14 1 14 10 1 8 -13 10 -12 10 3 0 9 5 17 10
17 6 0 10 7 10 16 0 10 6 14 14 11 16 -6 19 41 4 61 -13 15 9 45 29 38 7 -3
13 1 13 8 0 8 8 13 18 12 18 -1 18 2 6 87 -5 38 -14 54 -43 78 -35 29 -35 30
-16 42 29 17 56 25 93 26 17 1 32 5 32 10 0 14 -50 51 -69 51 -11 0 -13 3 -4
8 18 12 -13 35 -62 47 -29 8 -40 15 -38 28 0 12 -4 16 -13 13 -8 -3 -21 -9
-29 -12 -8 -3 -15 -1 -15 5 0 6 -6 11 -14 11 -8 0 -16 7 -20 15 -8 23 -23 18
-30 -10 -4 -14 -11 -25 -17 -25 -7 0 -9 10 -5 24 3 14 2 28 -4 31 -5 3 -10 2
-10 -2 0 -5 -11 -20 -25 -35 -21 -22 -31 -26 -60 -21 -21 3 -35 1 -35 -5 0 -5
-20 -19 -45 -31 -31 -15 -45 -27 -45 -41 0 -21 -43 -45 -60 -35 -5 3 -20 -11
-33 -32 -26 -42 -97 -213 -97 -234 0 -8 -9 -49 -20 -91 -22 -89 -34 -198 -22
-198 13 0 32 -48 26 -65 -4 -8 4 -30 18 -48 28 -39 48 -77 52 -99 1 -9 17 -33
35 -55 l33 -38 -7 -90 c-5 -72 -2 -106 13 -170 11 -44 23 -88 27 -97 9 -23 4
-23 -40 3 -20 12 -38 19 -41 16 -13 -13 21 -49 67 -72 51 -26 57 -45 13 -45
-13 0 -24 -4 -24 -8 0 -16 25 -32 50 -32 29 0 50 -16 50 -38 0 -12 -5 -11 -26
3 -40 26 -38 13 9 -47 156 -201 370 -352 603 -425 l32 -10 -16 27 c-9 15 -35
39 -58 54 -24 15 -46 36 -49 46 -3 10 -14 22 -24 25 -29 9 -108 90 -130 133
-11 21 -32 47 -46 56 -15 10 -32 30 -38 45 -7 14 -38 63 -70 108 -32 45 -64
98 -72 117 -9 20 -20 36 -25 36 -6 0 -10 6 -10 14 0 7 -10 28 -23 47 -37 55
-41 71 -14 67 15 -2 21 -9 19 -22 -3 -13 1 -17 12 -13 19 8 176 -149 176 -175
0 -10 5 -18 10 -18 12 0 90 -79 90 -90 0 -18 207 -218 253 -244 26 -15 47 -31
47 -35 0 -4 21 -23 48 -41 26 -18 58 -44 72 -57 32 -30 97 -73 112 -73 12 0
73 -50 61 -51 -4 0 1 -4 12 -9 33 -14 186 -11 281 5 355 62 662 266 861 572
137 210 206 445 206 703 0 291 -86 553 -259 783 -59 79 -226 247 -245 247 -5
0 -11 -12 -14 -27 -15 -78 -28 -123 -51 -172 -14 -31 -24 -72 -24 -98 0 -24
-7 -59 -14 -78 -16 -38 -21 -39 -151 -35 -27 1 -81 -4 -119 -10 -38 -6 -70 -9
-73 -6 -2 2 14 39 36 82 22 44 69 144 104 224 35 80 75 167 88 193 23 48 23
49 5 63 -32 23 -45 17 -66 -28z m110 -582 c0 -2 -8 -10 -17 -17 -16 -13 -17
-12 -4 4 13 16 21 21 21 13z m-460 -162 c0 -9 -5 -14 -12 -12 -18 6 -21 28 -4
28 9 0 16 -7 16 -16z m285 -354 c-3 -5 -1 -11 5 -15 6 -4 8 -11 5 -16 -4 -5
-2 -9 4 -9 5 0 11 12 13 28 l3 27 20 -35 c16 -28 20 -53 19 -120 0 -118 -42
-210 -59 -131 -5 25 -13 30 -63 41 -31 7 -64 14 -72 15 -25 4 -50 17 -50 26 0
26 157 212 172 203 4 -3 6 -9 3 -14z m-348 -564 c10 -16 -88 67 -112 95 -11
13 8 -1 43 -30 34 -29 65 -58 69 -65z m-212 84 c-3 -5 -13 -10 -21 -10 -8 0
-12 5 -9 10 3 6 13 10 21 10 8 0 12 -4 9 -10z m250 -110 c10 -11 16 -20 13
-20 -3 0 -13 9 -23 20 -10 11 -16 20 -13 20 3 0 13 -9 23 -20z m185 -136 c0
-2 -9 0 -20 6 -11 6 -20 13 -20 16 0 2 9 0 20 -6 11 -6 20 -13 20 -16z m-1015
-254 c3 -5 2 -10 -4 -10 -5 0 -13 5 -16 10 -3 6 -2 10 4 10 5 0 13 -4 16 -10z"/>
<path d="M1950 2401 c0 -5 -3 -16 -6 -25 -4 -11 3 -19 22 -28 l29 -12 -28 -4
c-15 -2 -25 -8 -21 -13 3 -5 10 -7 15 -4 5 3 6 -1 3 -10 -4 -9 -9 -13 -12 -10
-10 10 -29 -57 -24 -83 3 -17 10 -22 23 -19 10 3 20 0 22 -7 3 -6 15 -1 30 15
35 37 62 89 37 74 -5 -3 -10 1 -10 10 0 9 4 14 9 10 16 -9 42 37 29 52 -6 7
-16 13 -22 13 -6 0 -28 11 -48 25 -40 27 -48 30 -48 16z"/>
<path d="M1914 2144 c5 -14 4 -15 -9 -4 -13 11 -15 9 -13 -12 3 -36 32 -33 35
3 1 16 -3 29 -8 29 -6 0 -8 -7 -5 -16z"/>
<path d="M1973 2132 c-3 -12 -10 -22 -16 -22 -6 0 -7 -3 -4 -6 3 -4 2 -15 -4
-25 -5 -11 -7 -19 -5 -19 10 0 48 82 41 88 -3 3 -8 -4 -12 -16z"/>
<path d="M920 1970 c0 -5 4 -10 10 -10 5 0 17 -23 27 -50 21 -58 83 -124 127
-134 26 -6 28 -5 22 16 -3 13 -6 30 -6 39 0 9 -11 21 -26 27 -25 12 -25 12 -7
42 13 23 14 33 5 42 -9 9 -13 7 -18 -6 -5 -12 -10 -14 -19 -6 -9 8 -14 2 -20
-22 l-7 -33 -10 45 c-6 25 -15 48 -22 52 -16 11 -56 10 -56 -2z"/>
<path d="M1500 1729 c0 -17 10 -33 30 -47 41 -31 41 -4 0 40 l-29 33 -1 -26z"/>
<path d="M1650 1625 c0 -19 -7 -52 -15 -72 -19 -46 -19 -59 2 -42 25 22 45 78
38 110 -10 43 -25 45 -25 4z"/>
<path d="M946 1611 c-12 -18 -35 -124 -30 -133 8 -12 -18 -98 -27 -92 -4 2
-11 -17 -15 -43 -4 -27 -12 -52 -18 -56 -8 -6 -7 -10 2 -14 6 -2 12 -13 12
-23 0 -35 101 -77 113 -46 3 8 24 24 46 35 l39 20 -2 93 c-2 85 -4 94 -24 103
-31 14 -28 30 13 72 19 20 35 37 35 39 0 4 -67 44 -75 44 -4 0 -5 -6 -2 -13 3
-7 -3 -19 -13 -25 -15 -9 -18 -21 -15 -59 7 -69 7 -72 0 -143 -4 -36 -10 -68
-14 -73 -4 -4 -17 2 -30 14 -19 18 -22 29 -19 73 2 28 12 66 22 85 21 40 33
135 18 145 -6 3 -13 2 -16 -3z"/>
<path d="M1340 1574 l-35 -13 32 0 c17 -1 35 4 38 10 10 16 3 16 -35 3z"/>
<path d="M1497 1528 c-4 -12 -7 -33 -7 -46 0 -12 -17 -38 -39 -60 -38 -37 -38
-37 -23 -69 20 -42 56 -47 46 -7 -4 14 -3 29 2 33 13 9 54 96 54 114 0 11 -5
14 -17 10 -15 -6 -16 -4 -6 8 7 8 8 20 4 28 -6 9 -10 6 -14 -11z"/>
</g>
</svg>
